<svg xmlns="http://www.w3.org/2000/svg" xmlns:xlink="http://www.w3.org/1999/xlink" width="2000" zoomAndPan="magnify" viewBox="0 0 1500 1499.999933" height="2000" preserveAspectRatio="xMidYMid meet" version="1.0"><defs><g/><clipPath id="4ae6c84b30"><path d="M 750 0 C 335.785156 0 0 335.785156 0 750 C 0 1164.214844 335.785156 1500 750 1500 C 1164.214844 1500 1500 1164.214844 1500 750 C 1500 335.785156 1164.214844 0 750 0 Z M 750 0 " clip-rule="nonzero"/></clipPath><clipPath id="0af525c648"><path d="M 0 0 L 1500 0 L 1500 1500 L 0 1500 Z M 0 0 " clip-rule="nonzero"/></clipPath><clipPath id="c1f0a34a7b"><path d="M 750 0 C 335.785156 0 0 335.785156 0 750 C 0 1164.214844 335.785156 1500 750 1500 C 1164.214844 1500 1500 1164.214844 1500 750 C 1500 335.785156 1164.214844 0 750 0 Z M 750 0 " clip-rule="nonzero"/></clipPath><clipPath id="b5678a5053"><rect x="0" width="1500" y="0" height="1500"/></clipPath><clipPath id="89a9555b91"><rect x="0" width="866" y="0" height="1352"/></clipPath></defs><g clip-path="url(#4ae6c84b30)"><g transform="matrix(1, 0, 0, 1, 0, 0.000000000000112861)"><g clip-path="url(#b5678a5053)"><g clip-path="url(#0af525c648)"><g clip-path="url(#c1f0a34a7b)"><rect x="-330" width="2160" fill="#e4e2dd" height="2159.999904" y="-329.999985" fill-opacity="1"/></g></g></g></g></g><g transform="matrix(1, 0, 0, 1, 318, 148)"><g clip-path="url(#89a9555b91)"><g fill="#2b2b2b" fill-opacity="1"><g transform="translate(0.599391, 1149.953618)"><g><path d="M 298.453125 0 L 10.859375 0 C 25.328125 -14.46875 35.273438 -31.648438 40.703125 -51.546875 C 46.128906 -71.441406 48.84375 -96.945312 48.84375 -128.0625 L 48.84375 -957.203125 C 48.84375 -988.316406 46.128906 -1013.820312 40.703125 -1033.71875 C 35.273438 -1053.613281 25.328125 -1070.796875 10.859375 -1085.265625 L 312.5625 -1085.265625 C 342.21875 -1085.265625 365.1875 -1080.195312 381.46875 -1070.0625 C 397.75 -1059.9375 409.144531 -1047.457031 415.65625 -1032.625 C 422.164062 -1017.789062 425.421875 -1003.140625 425.421875 -988.671875 C 425.421875 -953.941406 418.003906 -922.832031 403.171875 -895.34375 C 388.335938 -867.851562 369.164062 -843.253906 345.65625 -821.546875 C 322.144531 -799.835938 297.179688 -779.9375 270.765625 -761.84375 C 244.359375 -743.757812 219.398438 -726.578125 195.890625 -710.296875 C 172.378906 -694.023438 153.207031 -677.566406 138.375 -660.921875 C 123.539062 -644.285156 116.125 -626.5625 116.125 -607.75 C 116.125 -585.320312 127.703125 -574.109375 150.859375 -574.109375 C 166.046875 -574.109375 185.9375 -579.894531 210.53125 -591.46875 C 235.132812 -603.039062 262.445312 -618.957031 292.46875 -639.21875 C 322.5 -659.476562 352.347656 -682.8125 382.015625 -709.21875 C 411.679688 -735.625 438.8125 -764.203125 463.40625 -794.953125 C 488.007812 -825.703125 507.90625 -856.992188 523.09375 -888.828125 C 538.289062 -920.660156 545.890625 -952.132812 545.890625 -983.25 C 545.890625 -1007.125 543.535156 -1025.929688 538.828125 -1039.671875 C 534.128906 -1053.421875 526.351562 -1068.617188 515.5 -1085.265625 L 744.5 -1085.265625 C 765.476562 -1085.265625 784.828125 -1075.859375 802.546875 -1057.046875 C 820.273438 -1038.234375 829.140625 -1013.992188 829.140625 -984.328125 C 829.140625 -940.203125 819.007812 -901.316406 798.75 -867.671875 C 778.5 -834.023438 751.910156 -804.539062 718.984375 -779.21875 C 686.066406 -753.894531 649.710938 -731.644531 609.921875 -712.46875 C 570.128906 -693.300781 530.515625 -676.484375 491.078125 -662.015625 C 451.648438 -647.546875 415.472656 -633.976562 382.546875 -621.3125 C 349.628906 -608.65625 323.039062 -595.992188 302.78125 -583.328125 C 282.53125 -570.671875 272.40625 -557.109375 272.40625 -542.640625 C 272.40625 -531.054688 279.273438 -524.539062 293.015625 -523.09375 C 306.765625 -521.644531 320.515625 -521.285156 334.265625 -522.015625 C 355.960938 -524.179688 378.75 -529.425781 402.625 -537.75 C 426.507812 -546.070312 451.113281 -554.210938 476.4375 -562.171875 C 501.757812 -570.128906 527.441406 -573.742188 553.484375 -573.015625 C 578.804688 -573.015625 599.425781 -565.414062 615.34375 -550.21875 C 631.257812 -535.03125 644.460938 -515.675781 654.953125 -492.15625 C 665.441406 -468.644531 674.304688 -443.863281 681.546875 -417.8125 C 688.785156 -391.769531 696.019531 -367.898438 703.25 -346.203125 C 736.53125 -247.804688 764.742188 -170.207031 787.890625 -113.40625 C 811.046875 -56.613281 836.007812 -18.8125 862.78125 0 L 629.453125 0 C 597.617188 0 572.476562 -3.4375 554.03125 -10.3125 C 535.582031 -17.1875 521.472656 -28.035156 511.703125 -42.859375 C 501.929688 -57.691406 493.429688 -77.050781 486.203125 -100.9375 C 476.796875 -132.769531 466.125 -169.125 454.1875 -210 C 442.25 -250.875 427.234375 -289.765625 409.140625 -326.671875 C 396.117188 -354.160156 379.835938 -380.566406 360.296875 -405.890625 C 340.765625 -431.210938 318.695312 -451.832031 294.09375 -467.75 C 269.5 -483.664062 243.09375 -491.265625 214.875 -490.546875 C 190.28125 -490.546875 170.566406 -486.019531 155.734375 -476.96875 C 140.898438 -467.925781 130.40625 -457.253906 124.25 -444.953125 C 118.101562 -432.660156 115.03125 -421.085938 115.03125 -410.234375 C 115.03125 -386.359375 120.816406 -366.097656 132.390625 -349.453125 C 143.972656 -332.816406 158.988281 -317.804688 177.4375 -304.421875 C 195.882812 -291.035156 215.238281 -277.828125 235.5 -264.796875 C 255.757812 -251.773438 275.113281 -237.125 293.5625 -220.84375 C 312.007812 -204.570312 327.019531 -185.21875 338.59375 -162.78125 C 350.175781 -140.351562 355.96875 -112.5 355.96875 -79.21875 C 355.96875 -60.40625 349.816406 -42.5 337.515625 -25.5 C 325.210938 -8.5 312.191406 0 298.453125 0 Z M 298.453125 0 "/></g></g></g></g></g></svg>